G04*
G04 #@! TF.GenerationSoftware,Altium Limited,Altium Designer,24.1.2 (44)*
G04*
G04 Layer_Physical_Order=1*
G04 Layer_Color=255*
%FSLAX44Y44*%
%MOMM*%
G71*
G04*
G04 #@! TF.SameCoordinates,5DE3D9D9-2881-4E34-8FA9-09D51DE8E5B4*
G04*
G04*
G04 #@! TF.FilePolarity,Positive*
G04*
G01*
G75*
%ADD16C,0.2540*%
%ADD19R,1.2000X1.2000*%
%ADD20C,1.2000*%
%ADD21R,1.6000X1.6000*%
%ADD22C,1.5700*%
%ADD23R,1.2500X1.2500*%
%ADD24C,1.2500*%
%ADD26R,2.2000X2.2000*%
%ADD27C,2.2000*%
%ADD28C,1.6000*%
%ADD31R,1.3000X1.3000*%
%ADD32C,1.3000*%
%ADD36C,0.5080*%
%ADD37C,1.0160*%
%ADD38C,1.5000*%
%ADD39R,1.5000X1.5000*%
G04:AMPARAMS|DCode=40|XSize=3.6mm|YSize=1.7mm|CornerRadius=0.85mm|HoleSize=0mm|Usage=FLASHONLY|Rotation=0.000|XOffset=0mm|YOffset=0mm|HoleType=Round|Shape=RoundedRectangle|*
%AMROUNDEDRECTD40*
21,1,3.6000,0.0000,0,0,0.0*
21,1,1.9000,1.7000,0,0,0.0*
1,1,1.7000,0.9500,0.0000*
1,1,1.7000,-0.9500,0.0000*
1,1,1.7000,-0.9500,0.0000*
1,1,1.7000,0.9500,0.0000*
%
%ADD40ROUNDEDRECTD40*%
%ADD41C,1.5500*%
%ADD42R,1.5500X1.5500*%
%ADD43R,3.5000X1.7000*%
G04:AMPARAMS|DCode=44|XSize=3.7mm|YSize=1.7mm|CornerRadius=0.85mm|HoleSize=0mm|Usage=FLASHONLY|Rotation=180.000|XOffset=0mm|YOffset=0mm|HoleType=Round|Shape=RoundedRectangle|*
%AMROUNDEDRECTD44*
21,1,3.7000,0.0000,0,0,180.0*
21,1,2.0000,1.7000,0,0,180.0*
1,1,1.7000,-1.0000,0.0000*
1,1,1.7000,1.0000,0.0000*
1,1,1.7000,1.0000,0.0000*
1,1,1.7000,-1.0000,0.0000*
%
%ADD44ROUNDEDRECTD44*%
%ADD45C,5.0000*%
G36*
X855980Y1146810D02*
Y741680D01*
Y280670D01*
X767080D01*
X701040Y346710D01*
X701040Y581660D01*
X574040Y708660D01*
X477031D01*
X475277Y709130D01*
X472143D01*
X470389Y708660D01*
X459740D01*
Y765810D01*
X674370D01*
Y905510D01*
X586740Y993140D01*
X480382D01*
X479419Y993696D01*
X476494Y994480D01*
X473466D01*
X470541Y993696D01*
X469578Y993140D01*
X450850D01*
Y1071880D01*
X472440Y1093470D01*
X521970D01*
Y1166510D01*
X834390D01*
X855980Y1146810D01*
D02*
G37*
%LPC*%
G36*
X559697Y1160380D02*
X558800D01*
Y1134110D01*
X585070D01*
Y1135007D01*
X584392Y1139289D01*
X583052Y1143412D01*
X581084Y1147274D01*
X578536Y1150781D01*
X575471Y1153846D01*
X571964Y1156394D01*
X568102Y1158362D01*
X563979Y1159702D01*
X559697Y1160380D01*
D02*
G37*
G36*
X556260D02*
X555363D01*
X551081Y1159702D01*
X546958Y1158362D01*
X543096Y1156394D01*
X539589Y1153846D01*
X536524Y1150781D01*
X533976Y1147274D01*
X532008Y1143412D01*
X530668Y1139289D01*
X529990Y1135007D01*
Y1134110D01*
X556260D01*
Y1160380D01*
D02*
G37*
G36*
X585070Y1131570D02*
X558800D01*
Y1105300D01*
X559697D01*
X563979Y1105978D01*
X568102Y1107318D01*
X571964Y1109286D01*
X575471Y1111834D01*
X578536Y1114899D01*
X581084Y1118406D01*
X583052Y1122268D01*
X584392Y1126391D01*
X585070Y1130673D01*
Y1131570D01*
D02*
G37*
G36*
X556260D02*
X529990D01*
Y1130673D01*
X530668Y1126391D01*
X532008Y1122268D01*
X533976Y1118406D01*
X536524Y1114899D01*
X539589Y1111834D01*
X543096Y1109286D01*
X546958Y1107318D01*
X551081Y1105978D01*
X555363Y1105300D01*
X556260D01*
Y1131570D01*
D02*
G37*
G36*
X809270Y1034620D02*
X797000D01*
Y1022350D01*
X809270D01*
Y1034620D01*
D02*
G37*
G36*
X794460D02*
X782190D01*
Y1022350D01*
X794460D01*
Y1034620D01*
D02*
G37*
G36*
X547370Y1021919D02*
Y1014170D01*
X555119D01*
X554524Y1016389D01*
X553334Y1018451D01*
X551651Y1020134D01*
X549589Y1021324D01*
X547370Y1021919D01*
D02*
G37*
G36*
X544830D02*
X542611Y1021324D01*
X540549Y1020134D01*
X538866Y1018451D01*
X537676Y1016389D01*
X537081Y1014170D01*
X544830D01*
Y1021919D01*
D02*
G37*
G36*
X485020Y1018420D02*
X476250D01*
Y1009650D01*
X485020D01*
Y1018420D01*
D02*
G37*
G36*
X473710D02*
X464940D01*
Y1009650D01*
X473710D01*
Y1018420D01*
D02*
G37*
G36*
X809270Y1019810D02*
X797000D01*
Y1007540D01*
X809270D01*
Y1019810D01*
D02*
G37*
G36*
X794460D02*
X782190D01*
Y1007540D01*
X794460D01*
Y1019810D01*
D02*
G37*
G36*
X555119Y1011630D02*
X547370D01*
Y1003881D01*
X549589Y1004476D01*
X551651Y1005666D01*
X553334Y1007349D01*
X554524Y1009411D01*
X555119Y1011630D01*
D02*
G37*
G36*
X544830D02*
X537081D01*
X537676Y1009411D01*
X538866Y1007349D01*
X540549Y1005666D01*
X542611Y1004476D01*
X544830Y1003881D01*
Y1011630D01*
D02*
G37*
G36*
X485020Y1007110D02*
X476250D01*
Y998340D01*
X485020D01*
Y1007110D01*
D02*
G37*
G36*
X473710D02*
X464940D01*
Y998340D01*
X473710D01*
Y1007110D01*
D02*
G37*
G36*
X809270Y962230D02*
X797000D01*
Y949960D01*
X809270D01*
Y962230D01*
D02*
G37*
G36*
X794460D02*
X782190D01*
Y949960D01*
X794460D01*
Y962230D01*
D02*
G37*
G36*
X809270Y947420D02*
X797000D01*
Y935150D01*
X809270D01*
Y947420D01*
D02*
G37*
G36*
X794460D02*
X782190D01*
Y935150D01*
X794460D01*
Y947420D01*
D02*
G37*
G36*
X809270Y889840D02*
X797000D01*
Y877570D01*
X809270D01*
Y889840D01*
D02*
G37*
G36*
X794460D02*
X782190D01*
Y877570D01*
X794460D01*
Y889840D01*
D02*
G37*
G36*
X809270Y875030D02*
X797000D01*
Y862760D01*
X809270D01*
Y875030D01*
D02*
G37*
G36*
X794460D02*
X782190D01*
Y862760D01*
X794460D01*
Y875030D01*
D02*
G37*
G36*
X740540Y869520D02*
X728270D01*
Y857250D01*
X740540D01*
Y869520D01*
D02*
G37*
G36*
X725730D02*
X713460D01*
Y857250D01*
X725730D01*
Y869520D01*
D02*
G37*
G36*
X740540Y854710D02*
X728270D01*
Y842440D01*
X740540D01*
Y854710D01*
D02*
G37*
G36*
X725730D02*
X713460D01*
Y842440D01*
X725730D01*
Y854710D01*
D02*
G37*
G36*
X809270Y816180D02*
X797000D01*
Y803910D01*
X809270D01*
Y816180D01*
D02*
G37*
G36*
X794460D02*
X782190D01*
Y803910D01*
X794460D01*
Y816180D01*
D02*
G37*
G36*
X809270Y801370D02*
X797000D01*
Y789100D01*
X809270D01*
Y801370D01*
D02*
G37*
G36*
X794460D02*
X782190D01*
Y789100D01*
X794460D01*
Y801370D01*
D02*
G37*
G36*
X562610Y732639D02*
Y724890D01*
X570359D01*
X569764Y727109D01*
X568574Y729171D01*
X566891Y730854D01*
X564829Y732044D01*
X562610Y732639D01*
D02*
G37*
G36*
X560070D02*
X557851Y732044D01*
X555789Y730854D01*
X554106Y729171D01*
X552916Y727109D01*
X552321Y724890D01*
X560070D01*
Y732639D01*
D02*
G37*
G36*
X483750Y732670D02*
X474980D01*
Y723900D01*
X483750D01*
Y732670D01*
D02*
G37*
G36*
X472440D02*
X463670D01*
Y723900D01*
X472440D01*
Y732670D01*
D02*
G37*
G36*
X570359Y722350D02*
X562610D01*
Y714601D01*
X564829Y715196D01*
X566891Y716386D01*
X568574Y718069D01*
X569764Y720131D01*
X570359Y722350D01*
D02*
G37*
G36*
X560070D02*
X552321D01*
X552916Y720131D01*
X554106Y718069D01*
X555789Y716386D01*
X557851Y715196D01*
X560070Y714601D01*
Y722350D01*
D02*
G37*
G36*
X483750Y721360D02*
X474980D01*
Y712590D01*
X483750D01*
Y721360D01*
D02*
G37*
G36*
X472440D02*
X463670D01*
Y712590D01*
X472440D01*
Y721360D01*
D02*
G37*
G36*
X744350Y569800D02*
X732080D01*
Y557530D01*
X744350D01*
Y569800D01*
D02*
G37*
G36*
X729540D02*
X717270D01*
Y557530D01*
X729540D01*
Y569800D01*
D02*
G37*
G36*
X744350Y554990D02*
X732080D01*
Y542720D01*
X744350D01*
Y554990D01*
D02*
G37*
G36*
X729540D02*
X717270D01*
Y542720D01*
X729540D01*
Y554990D01*
D02*
G37*
G36*
X801650Y541860D02*
X789380D01*
Y529590D01*
X801650D01*
Y541860D01*
D02*
G37*
G36*
X786840D02*
X774570D01*
Y529590D01*
X786840D01*
Y541860D01*
D02*
G37*
G36*
X801650Y527050D02*
X789380D01*
Y514780D01*
X801650D01*
Y527050D01*
D02*
G37*
G36*
X786840D02*
X774570D01*
Y514780D01*
X786840D01*
Y527050D01*
D02*
G37*
G36*
X801650Y469470D02*
X789380D01*
Y457200D01*
X801650D01*
Y469470D01*
D02*
G37*
G36*
X786840D02*
X774570D01*
Y457200D01*
X786840D01*
Y469470D01*
D02*
G37*
G36*
X801650Y454660D02*
X789380D01*
Y442390D01*
X801650D01*
Y454660D01*
D02*
G37*
G36*
X786840D02*
X774570D01*
Y442390D01*
X786840D01*
Y454660D01*
D02*
G37*
G36*
X801650Y395810D02*
X789380D01*
Y383540D01*
X801650D01*
Y395810D01*
D02*
G37*
G36*
X786840D02*
X774570D01*
Y383540D01*
X786840D01*
Y395810D01*
D02*
G37*
G36*
X801650Y381000D02*
X789380D01*
Y368730D01*
X801650D01*
Y381000D01*
D02*
G37*
G36*
X786840D02*
X774570D01*
Y368730D01*
X786840D01*
Y381000D01*
D02*
G37*
G36*
X801650Y323420D02*
X789380D01*
Y311150D01*
X801650D01*
Y323420D01*
D02*
G37*
G36*
X786840D02*
X774570D01*
Y311150D01*
X786840D01*
Y323420D01*
D02*
G37*
G36*
X801650Y308610D02*
X789380D01*
Y296340D01*
X801650D01*
Y308610D01*
D02*
G37*
G36*
X786840D02*
X774570D01*
Y296340D01*
X786840D01*
Y308610D01*
D02*
G37*
%LPD*%
D16*
X419097Y1159506D02*
X416558Y1162045D01*
X411479D01*
X408940Y1159506D01*
Y1149349D01*
X411479Y1146810D01*
X416558D01*
X419097Y1149349D01*
Y1154427D01*
X414018D01*
X424175Y1146810D02*
Y1162045D01*
X434332Y1146810D01*
Y1162045D01*
X439410D02*
Y1146810D01*
X447028D01*
X449567Y1149349D01*
Y1159506D01*
X447028Y1162045D01*
X439410D01*
X1221740Y1137915D02*
Y1127758D01*
X1226818Y1122680D01*
X1231897Y1127758D01*
Y1137915D01*
X1236975Y1122680D02*
X1242053D01*
X1239514D01*
Y1137915D01*
X1236975Y1135376D01*
X1070607Y1162043D02*
X1060450D01*
Y1146808D01*
X1070607D01*
X1060450Y1154426D02*
X1065528D01*
X1075685Y1141730D02*
X1078224D01*
X1080763Y1144269D01*
Y1156965D01*
X1098538Y1146808D02*
X1093459D01*
X1090920Y1149348D01*
Y1154426D01*
X1093459Y1156965D01*
X1098538D01*
X1101077Y1154426D01*
Y1151887D01*
X1090920D01*
X1116312Y1156965D02*
X1108694D01*
X1106155Y1154426D01*
Y1149348D01*
X1108694Y1146808D01*
X1116312D01*
X1123930Y1159504D02*
Y1156965D01*
X1121390D01*
X1126469D01*
X1123930D01*
Y1149348D01*
X1126469Y1146808D01*
X1136625D02*
X1141704D01*
X1144243Y1149348D01*
Y1154426D01*
X1141704Y1156965D01*
X1136625D01*
X1134086Y1154426D01*
Y1149348D01*
X1136625Y1146808D01*
X1149321Y1156965D02*
Y1146808D01*
Y1151887D01*
X1151860Y1154426D01*
X1154400Y1156965D01*
X1156939D01*
X1179791Y1162043D02*
Y1146808D01*
X1187409D01*
X1189948Y1149348D01*
Y1151887D01*
X1187409Y1154426D01*
X1179791D01*
X1187409D01*
X1189948Y1156965D01*
Y1159504D01*
X1187409Y1162043D01*
X1179791D01*
X1197566Y1146808D02*
X1202644D01*
X1205183Y1149348D01*
Y1154426D01*
X1202644Y1156965D01*
X1197566D01*
X1195026Y1154426D01*
Y1149348D01*
X1197566Y1146808D01*
X1212801Y1156965D02*
X1217879D01*
X1220418Y1154426D01*
Y1146808D01*
X1212801D01*
X1210262Y1149348D01*
X1212801Y1151887D01*
X1220418D01*
X1225497Y1156965D02*
Y1146808D01*
Y1151887D01*
X1228036Y1154426D01*
X1230575Y1156965D01*
X1233114D01*
X1250888Y1162043D02*
Y1146808D01*
X1243271D01*
X1240732Y1149348D01*
Y1154426D01*
X1243271Y1156965D01*
X1250888D01*
X299724Y758187D02*
Y745492D01*
X302263Y742952D01*
X307342D01*
X309881Y745492D01*
Y758187D01*
X325116Y742952D02*
X314959D01*
X325116Y753109D01*
Y755648D01*
X322577Y758187D01*
X317498D01*
X314959Y755648D01*
X329946Y1046729D02*
Y1034033D01*
X332485Y1031494D01*
X337564D01*
X340103Y1034033D01*
Y1046729D01*
X345181Y1031494D02*
X350259D01*
X347720D01*
Y1046729D01*
X345181Y1044190D01*
X673101Y494028D02*
X670562Y496567D01*
X665483D01*
X662944Y494028D01*
Y483872D01*
X665483Y481333D01*
X670562D01*
X673101Y483872D01*
X685797Y481333D02*
Y496567D01*
X678179Y488950D01*
X688336D01*
X660401Y279398D02*
X655322D01*
X657862D01*
Y266702D01*
X655322Y264163D01*
X652783D01*
X650244Y266702D01*
X675636Y264163D02*
X665479D01*
X675636Y274319D01*
Y276858D01*
X673097Y279398D01*
X668018D01*
X665479Y276858D01*
X622296Y349248D02*
Y334012D01*
X614678D01*
X612139Y336552D01*
Y341630D01*
X614678Y344169D01*
X622296D01*
X617217D02*
X612139Y349248D01*
X596904D02*
X607061D01*
X596904Y339091D01*
Y336552D01*
X599443Y334012D01*
X604522D01*
X607061Y336552D01*
X885194Y537207D02*
Y521973D01*
X892812D01*
X895351Y524512D01*
Y534668D01*
X892812Y537207D01*
X885194D01*
X900429Y524512D02*
X902968Y521973D01*
X908047D01*
X910586Y524512D01*
Y534668D01*
X908047Y537207D01*
X902968D01*
X900429Y534668D01*
Y532129D01*
X902968Y529590D01*
X910586D01*
X615950Y311147D02*
X610872D01*
X613411D01*
Y298452D01*
X610872Y295912D01*
X608332D01*
X605793Y298452D01*
X621028Y295912D02*
X626107D01*
X623568D01*
Y311147D01*
X621028Y308608D01*
X612141Y457198D02*
X609602Y459738D01*
X604523D01*
X601984Y457198D01*
Y447042D01*
X604523Y444502D01*
X609602D01*
X612141Y447042D01*
X617219Y457198D02*
X619758Y459738D01*
X624837D01*
X627376Y457198D01*
Y454659D01*
X624837Y452120D01*
X622298D01*
X624837D01*
X627376Y449581D01*
Y447042D01*
X624837Y444502D01*
X619758D01*
X617219Y447042D01*
X554482Y434086D02*
Y449321D01*
X562099D01*
X564639Y446782D01*
Y441703D01*
X562099Y439164D01*
X554482D01*
X559560D02*
X564639Y434086D01*
X569717D02*
X574795D01*
X572256D01*
Y449321D01*
X569717Y446782D01*
X891543Y1029967D02*
Y1014733D01*
X899161D01*
X901700Y1017272D01*
Y1027428D01*
X899161Y1029967D01*
X891543D01*
X906778Y1014733D02*
X911857D01*
X909318D01*
Y1029967D01*
X906778Y1027428D01*
X311154Y501647D02*
Y488952D01*
X313693Y486413D01*
X318772D01*
X321311Y488952D01*
Y501647D01*
X326389Y499108D02*
X328928Y501647D01*
X334007D01*
X336546Y499108D01*
Y496569D01*
X334007Y494030D01*
X331468D01*
X334007D01*
X336546Y491491D01*
Y488952D01*
X334007Y486413D01*
X328928D01*
X326389Y488952D01*
X1040134Y626113D02*
Y641348D01*
X1047752D01*
X1050291Y638808D01*
Y633730D01*
X1047752Y631191D01*
X1040134D01*
X1065526Y626113D02*
X1055369D01*
X1065526Y636269D01*
Y638808D01*
X1062987Y641348D01*
X1057908D01*
X1055369Y638808D01*
X988063Y1115062D02*
Y1130297D01*
X995681D01*
X998220Y1127758D01*
Y1122680D01*
X995681Y1120141D01*
X988063D01*
X1003298Y1115062D02*
X1008377D01*
X1005838D01*
Y1130297D01*
X1003298Y1127758D01*
X600716Y562607D02*
Y547373D01*
X608334D01*
X610873Y549912D01*
Y560068D01*
X608334Y562607D01*
X600716D01*
X615951Y547373D02*
X621030D01*
X618490D01*
Y562607D01*
X615951Y560068D01*
X628647D02*
X631186Y562607D01*
X636265D01*
X638804Y560068D01*
Y557529D01*
X636265Y554990D01*
X638804Y552451D01*
Y549912D01*
X636265Y547373D01*
X631186D01*
X628647Y549912D01*
Y552451D01*
X631186Y554990D01*
X628647Y557529D01*
Y560068D01*
X631186Y554990D02*
X636265D01*
X598176Y862327D02*
Y847093D01*
X605794D01*
X608333Y849632D01*
Y859788D01*
X605794Y862327D01*
X598176D01*
X613411Y847093D02*
X618490D01*
X615950D01*
Y862327D01*
X613411Y859788D01*
X626107Y862327D02*
X636264D01*
Y859788D01*
X626107Y849632D01*
Y847093D01*
X1149356Y317498D02*
Y302262D01*
X1156974D01*
X1159513Y304802D01*
Y314958D01*
X1156974Y317498D01*
X1149356D01*
X1164591Y302262D02*
X1169670D01*
X1167130D01*
Y317498D01*
X1164591Y314958D01*
X1187444Y317498D02*
X1182365Y314958D01*
X1177287Y309880D01*
Y304802D01*
X1179826Y302262D01*
X1184905D01*
X1187444Y304802D01*
Y307341D01*
X1184905Y309880D01*
X1177287D01*
X1150626Y388618D02*
Y373382D01*
X1158244D01*
X1160783Y375922D01*
Y386078D01*
X1158244Y388618D01*
X1150626D01*
X1165861Y373382D02*
X1170940D01*
X1168400D01*
Y388618D01*
X1165861Y386078D01*
X1188714Y388618D02*
X1178557D01*
Y381000D01*
X1183635Y383539D01*
X1186175D01*
X1188714Y381000D01*
Y375922D01*
X1186175Y373382D01*
X1181096D01*
X1178557Y375922D01*
X1146816Y462277D02*
Y447043D01*
X1154434D01*
X1156973Y449582D01*
Y459738D01*
X1154434Y462277D01*
X1146816D01*
X1162051Y447043D02*
X1167130D01*
X1164590D01*
Y462277D01*
X1162051Y459738D01*
X1182365Y447043D02*
Y462277D01*
X1174747Y454660D01*
X1184904D01*
X1145546Y535938D02*
Y520703D01*
X1153164D01*
X1155703Y523242D01*
Y533398D01*
X1153164Y535938D01*
X1145546D01*
X1160781Y520703D02*
X1165860D01*
X1163320D01*
Y535938D01*
X1160781Y533398D01*
X1173477D02*
X1176016Y535938D01*
X1181095D01*
X1183634Y533398D01*
Y530859D01*
X1181095Y528320D01*
X1178556D01*
X1181095D01*
X1183634Y525781D01*
Y523242D01*
X1181095Y520703D01*
X1176016D01*
X1173477Y523242D01*
X881386Y317498D02*
Y302262D01*
X889004D01*
X891543Y304802D01*
Y314958D01*
X889004Y317498D01*
X881386D01*
X896621Y302262D02*
X901700D01*
X899160D01*
Y317498D01*
X896621Y314958D01*
X919474Y302262D02*
X909317D01*
X919474Y312419D01*
Y314958D01*
X916935Y317498D01*
X911856D01*
X909317Y314958D01*
X882655Y391157D02*
Y375923D01*
X890273D01*
X892812Y378462D01*
Y388618D01*
X890273Y391157D01*
X882655D01*
X897890Y375923D02*
X902969D01*
X900430D01*
Y391157D01*
X897890Y388618D01*
X910586Y375923D02*
X915665D01*
X913126D01*
Y391157D01*
X910586Y388618D01*
X882656Y466087D02*
Y450853D01*
X890274D01*
X892813Y453392D01*
Y463548D01*
X890274Y466087D01*
X882656D01*
X897891Y450853D02*
X902970D01*
X900430D01*
Y466087D01*
X897891Y463548D01*
X910587D02*
X913126Y466087D01*
X918205D01*
X920744Y463548D01*
Y453392D01*
X918205Y450853D01*
X913126D01*
X910587Y453392D01*
Y463548D01*
X1159514Y812797D02*
Y797562D01*
X1167132D01*
X1169671Y800102D01*
Y810258D01*
X1167132Y812797D01*
X1159514D01*
X1174749Y810258D02*
X1177288Y812797D01*
X1182367D01*
X1184906Y810258D01*
Y807719D01*
X1182367Y805180D01*
X1184906Y802641D01*
Y800102D01*
X1182367Y797562D01*
X1177288D01*
X1174749Y800102D01*
Y802641D01*
X1177288Y805180D01*
X1174749Y807719D01*
Y810258D01*
X1177288Y805180D02*
X1182367D01*
X1158244Y878838D02*
Y863603D01*
X1165862D01*
X1168401Y866142D01*
Y876298D01*
X1165862Y878838D01*
X1158244D01*
X1173479D02*
X1183636D01*
Y876298D01*
X1173479Y866142D01*
Y863603D01*
X1155704Y957578D02*
Y942343D01*
X1163322D01*
X1165861Y944882D01*
Y955038D01*
X1163322Y957578D01*
X1155704D01*
X1181096D02*
X1176018Y955038D01*
X1170939Y949960D01*
Y944882D01*
X1173478Y942343D01*
X1178557D01*
X1181096Y944882D01*
Y947421D01*
X1178557Y949960D01*
X1170939D01*
X1154434Y1029967D02*
Y1014733D01*
X1162052D01*
X1164591Y1017272D01*
Y1027428D01*
X1162052Y1029967D01*
X1154434D01*
X1179826D02*
X1169669D01*
Y1022350D01*
X1174747Y1024889D01*
X1177287D01*
X1179826Y1022350D01*
Y1017272D01*
X1177287Y1014733D01*
X1172208D01*
X1169669Y1017272D01*
X892814Y808988D02*
Y793753D01*
X900432D01*
X902971Y796292D01*
Y806448D01*
X900432Y808988D01*
X892814D01*
X915667Y793753D02*
Y808988D01*
X908049Y801370D01*
X918206D01*
X890274Y885188D02*
Y869952D01*
X897892D01*
X900431Y872492D01*
Y882648D01*
X897892Y885188D01*
X890274D01*
X905509Y882648D02*
X908048Y885188D01*
X913127D01*
X915666Y882648D01*
Y880109D01*
X913127Y877570D01*
X910587D01*
X913127D01*
X915666Y875031D01*
Y872492D01*
X913127Y869952D01*
X908048D01*
X905509Y872492D01*
X891544Y958848D02*
Y943613D01*
X899162D01*
X901701Y946152D01*
Y956308D01*
X899162Y958848D01*
X891544D01*
X916936Y943613D02*
X906779D01*
X916936Y953769D01*
Y956308D01*
X914397Y958848D01*
X909318D01*
X906779Y956308D01*
X556261Y652778D02*
X553722Y655318D01*
X548643D01*
X546104Y652778D01*
Y642622D01*
X548643Y640082D01*
X553722D01*
X556261Y642622D01*
X571496Y640082D02*
X561339D01*
X571496Y650239D01*
Y652778D01*
X568957Y655318D01*
X563878D01*
X561339Y652778D01*
X547370Y944598D02*
X544831Y947138D01*
X539753D01*
X537213Y944598D01*
Y934442D01*
X539753Y931902D01*
X544831D01*
X547370Y934442D01*
X552448Y931902D02*
X557527D01*
X554988D01*
Y947138D01*
X552448Y944598D01*
D19*
X684370Y449580D02*
D03*
X622140Y412750D02*
D03*
D20*
X664370Y449580D02*
D03*
X602140Y412750D02*
D03*
D21*
X698500Y276860D02*
D03*
X566420Y280670D02*
D03*
D22*
X723900Y276860D02*
D03*
D23*
X661670Y295440D02*
D03*
X566420Y318300D02*
D03*
D24*
X661670Y395440D02*
D03*
X566420Y418300D02*
D03*
D26*
X730810Y556260D02*
D03*
X1059480Y802640D02*
D03*
Y875030D02*
D03*
Y947420D02*
D03*
X795730Y802640D02*
D03*
Y876300D02*
D03*
Y948690D02*
D03*
X1053130Y309880D02*
D03*
Y382270D02*
D03*
Y454660D02*
D03*
Y528320D02*
D03*
X788110Y309880D02*
D03*
Y382270D02*
D03*
Y455930D02*
D03*
Y528320D02*
D03*
X727000Y855980D02*
D03*
X1059480Y1021080D02*
D03*
X795730D02*
D03*
D27*
X521410Y556260D02*
D03*
X1268880Y802640D02*
D03*
Y875030D02*
D03*
Y947420D02*
D03*
X1005130Y802640D02*
D03*
Y876300D02*
D03*
Y948690D02*
D03*
X1262530Y309880D02*
D03*
Y382270D02*
D03*
Y454660D02*
D03*
Y528320D02*
D03*
X997510Y309880D02*
D03*
Y382270D02*
D03*
Y455930D02*
D03*
Y528320D02*
D03*
X517600Y855980D02*
D03*
X1268880Y1021080D02*
D03*
X1005130D02*
D03*
D28*
X591820Y280670D02*
D03*
D31*
X546100Y977900D02*
D03*
X561340Y688620D02*
D03*
D32*
X546100Y1012900D02*
D03*
X561340Y723620D02*
D03*
D36*
X661670Y295440D02*
X720924D01*
X723900Y276860D02*
Y292464D01*
X720924Y295440D02*
X723900Y292464D01*
X293370Y669290D02*
X346710Y722630D01*
X293370Y393970D02*
X311420Y375920D01*
X293370Y393970D02*
Y669290D01*
X327660Y822960D02*
X415290Y735330D01*
Y402590D02*
X467360Y350520D01*
X327660Y822960D02*
Y853004D01*
X415290Y402590D02*
Y735330D01*
X360244Y828476D02*
X427990Y760730D01*
Y432350D02*
X484420Y375920D01*
X427990Y432350D02*
Y760730D01*
X661670Y445008D02*
X664370Y447707D01*
X661670Y395440D02*
Y445008D01*
X664370Y447707D02*
Y449580D01*
X566420Y418300D02*
X594717D01*
X600267Y412750D02*
X602140D01*
X594717Y418300D02*
X600267Y412750D01*
X1008926Y607784D02*
X1010920Y605790D01*
X336550Y732790D02*
X346710Y722630D01*
X317500Y796290D02*
Y977900D01*
X336550Y732790D02*
Y777240D01*
X317500Y796290D02*
X336550Y777240D01*
X997510Y528320D02*
Y530673D01*
X386080Y383540D02*
X444500Y325120D01*
X386080Y383540D02*
Y541854D01*
X383104Y544830D02*
X386080Y541854D01*
X346710Y544830D02*
X383104D01*
X359410Y365760D02*
X425450Y299720D01*
X356434Y525780D02*
X359410Y522804D01*
X324286Y525780D02*
X356434D01*
X359410Y365760D02*
Y522804D01*
X444500Y325120D02*
X493920D01*
X467360Y350520D02*
X493920D01*
X321310Y528756D02*
Y567254D01*
Y528756D02*
X324286Y525780D01*
Y570230D02*
X346710D01*
X321310Y567254D02*
X324286Y570230D01*
X425450Y299720D02*
X493920D01*
X327660Y853004D02*
X330636Y855980D01*
X347980D01*
X317500Y977900D02*
X347980Y1008380D01*
X350084Y828476D02*
X360244D01*
X347980Y830580D02*
X350084Y828476D01*
X311420Y375920D02*
X321420D01*
X484420D02*
X493920D01*
X1051860Y455930D02*
X1053130Y454660D01*
D37*
X336691Y347100D02*
X337430D01*
X411480Y273050D02*
X513080D01*
X321420Y350520D02*
X333271D01*
X336691Y347100D01*
X337430D02*
X411480Y273050D01*
X1005130Y948690D02*
X1008112D01*
X1017002Y939800D02*
X1051860D01*
X1065400Y953340D02*
X1076530D01*
X1051860Y939800D02*
X1065400Y953340D01*
X1092200Y969010D02*
Y1055370D01*
X1008112Y948690D02*
X1017002Y939800D01*
X1076530Y953340D02*
X1092200Y969010D01*
X566420Y318300D02*
X590760Y293960D01*
Y281730D02*
Y293960D01*
Y281730D02*
X591820Y280670D01*
X1084580Y413720D02*
Y557530D01*
X1036320Y605790D02*
X1084580Y557530D01*
X1053130Y382270D02*
X1084580Y413720D01*
X956310Y525780D02*
Y627778D01*
X962262Y633730D01*
X1012190Y618665D02*
Y627778D01*
X962262Y633730D02*
X1006238D01*
X1012190Y627778D01*
X1011942Y606812D02*
Y618417D01*
X1012190Y618665D01*
X527050Y287020D02*
Y547416D01*
X513080Y273050D02*
X527050Y287020D01*
X521410Y553056D02*
Y556260D01*
Y553056D02*
X527050Y547416D01*
X504236Y570230D02*
X518206Y556260D01*
X473710Y570230D02*
X504236D01*
X518206Y556260D02*
X521410D01*
X445770Y826770D02*
X474980Y855980D01*
X445770Y598170D02*
Y826770D01*
Y598170D02*
X473710Y570230D01*
X474980Y855980D02*
X517600D01*
X1005130Y802640D02*
Y837640D01*
X944880Y897890D02*
X1005130Y837640D01*
Y876300D02*
X1005765Y875665D01*
X1058845D01*
X1059480Y875030D01*
X944880Y1090058D02*
X950832Y1096010D01*
X944880Y897890D02*
Y1090058D01*
X950832Y1096010D02*
X999490D01*
X977900Y1049020D02*
X1024890Y1096010D01*
X977900Y903530D02*
Y1049020D01*
Y903530D02*
X1005130Y876300D01*
X1050290Y1096010D02*
Y1111250D01*
X1058782Y1119742D01*
X1098948D02*
X1109980Y1108710D01*
X1058782Y1119742D02*
X1098948D01*
X1109980Y1073150D02*
Y1108710D01*
X1092200Y1055370D02*
X1109980Y1073150D01*
X1075690Y1096010D02*
X1076960Y1094740D01*
Y1070610D02*
Y1094740D01*
X1059480Y1021080D02*
Y1053130D01*
X1076960Y1070610D01*
X1050290Y1095852D02*
Y1096010D01*
X1118870Y320040D02*
Y599838D01*
X1061720Y605790D02*
X1112918D01*
X1118870Y599838D01*
X1108710Y309880D02*
X1118870Y320040D01*
X1053130Y309880D02*
X1108710D01*
X956310Y525780D02*
X997510Y484580D01*
Y455930D02*
Y484580D01*
X1010920Y605790D02*
X1011942Y606812D01*
X985520Y572770D02*
Y605790D01*
X997510Y530673D02*
Y560780D01*
X985520Y572770D02*
X997510Y560780D01*
Y309880D02*
X1053130D01*
X997510Y382270D02*
X1053130D01*
X997510Y455930D02*
X1051860D01*
X997510Y528320D02*
X1053130D01*
X1005130Y802640D02*
X1059480D01*
X1005130Y1021080D02*
X1059480D01*
D38*
X384810Y706120D02*
D03*
X397510Y722630D02*
D03*
X372110D02*
D03*
X346710Y570230D02*
D03*
Y595630D02*
D03*
Y621030D02*
D03*
Y646430D02*
D03*
Y671830D02*
D03*
Y697230D02*
D03*
Y722630D02*
D03*
X473710Y697230D02*
D03*
Y671830D02*
D03*
Y646430D02*
D03*
Y621030D02*
D03*
Y595630D02*
D03*
Y570230D02*
D03*
Y544830D02*
D03*
X386080Y991870D02*
D03*
X398780Y1008380D02*
D03*
X373380D02*
D03*
X347980Y855980D02*
D03*
Y881380D02*
D03*
Y906780D02*
D03*
Y932180D02*
D03*
Y957580D02*
D03*
Y982980D02*
D03*
Y1008380D02*
D03*
X474980Y982980D02*
D03*
Y957580D02*
D03*
Y932180D02*
D03*
Y906780D02*
D03*
Y881380D02*
D03*
Y855980D02*
D03*
Y830580D02*
D03*
D39*
X346710Y544830D02*
D03*
X473710Y722630D02*
D03*
X347980Y830580D02*
D03*
X474980Y1008380D02*
D03*
D40*
X493920Y426720D02*
D03*
Y325120D02*
D03*
Y350520D02*
D03*
Y375920D02*
D03*
Y401320D02*
D03*
Y452120D02*
D03*
X321420D02*
D03*
Y426720D02*
D03*
Y401320D02*
D03*
D41*
X999490Y1096010D02*
D03*
X1024890D02*
D03*
X1050290D02*
D03*
X1061720Y605790D02*
D03*
X1036320D02*
D03*
X1010920D02*
D03*
D42*
X1075690Y1096010D02*
D03*
X985520Y605790D02*
D03*
D43*
X493920Y299720D02*
D03*
D44*
X321420Y375920D02*
D03*
Y350520D02*
D03*
Y325120D02*
D03*
Y299720D02*
D03*
D45*
X1296670Y274320D02*
D03*
X1287780Y1149350D02*
D03*
X313690Y1146810D02*
D03*
X480060Y1134110D02*
D03*
X557530Y1132840D02*
D03*
M02*
