G04*
G04 #@! TF.GenerationSoftware,Altium Limited,Altium Designer,24.1.2 (44)*
G04*
G04 Layer_Color=65535*
%FSLAX44Y44*%
%MOMM*%
G71*
G04*
G04 #@! TF.SameCoordinates,5DE3D9D9-2881-4E34-8FA9-09D51DE8E5B4*
G04*
G04*
G04 #@! TF.FilePolarity,Positive*
G04*
G01*
G75*
%ADD10C,0.2000*%
%ADD11C,0.1500*%
%ADD12C,0.2500*%
%ADD13C,0.1200*%
%ADD14C,0.0000*%
%ADD15C,0.1270*%
%ADD16C,0.2540*%
G36*
X516679Y285527D02*
X515839Y286089D01*
X515277Y286929D01*
X515080Y287920D01*
X515277Y288911D01*
X515839Y289751D01*
X516679Y290313D01*
X517670Y290510D01*
X518661Y290313D01*
X519501Y289751D01*
X520063Y288911D01*
X520260Y287920D01*
X520063Y286929D01*
X519501Y286089D01*
X518661Y285527D01*
X517670Y285330D01*
X516679Y285527D01*
D02*
G37*
G36*
X407411Y378188D02*
X406671D01*
X405627Y383763D01*
X406320D01*
X406524Y382533D01*
X407550D01*
X407772Y383763D01*
X408456D01*
X407411Y378188D01*
D02*
G37*
G36*
X412062Y380823D02*
X412894Y378225D01*
X412136D01*
X411646Y380074D01*
X411627Y380065D01*
X411128Y378225D01*
X410360D01*
X411211Y380823D01*
X410222Y383763D01*
X410989D01*
X411636Y381701D01*
X411646D01*
X412274Y383763D01*
X413032D01*
X412062Y380823D01*
D02*
G37*
G36*
X409695Y378225D02*
X408983D01*
Y383763D01*
X409695D01*
Y378225D01*
D02*
G37*
G36*
X403861Y383828D02*
X403907D01*
X403963Y383809D01*
X404027Y383800D01*
X404175Y383745D01*
X404258Y383698D01*
X404342Y383652D01*
X404434Y383587D01*
X404526Y383513D01*
X404619Y383430D01*
X404702Y383329D01*
X404785Y383208D01*
X404869Y383079D01*
Y383070D01*
X404887Y383042D01*
X404906Y382996D01*
X404933Y382940D01*
X404961Y382866D01*
X404998Y382765D01*
X405035Y382663D01*
X405072Y382533D01*
X405109Y382395D01*
X405146Y382238D01*
X405183Y382071D01*
X405211Y381877D01*
X405238Y381683D01*
X405257Y381470D01*
X405266Y381239D01*
X405275Y380999D01*
Y380980D01*
Y380943D01*
Y380878D01*
X405266Y380795D01*
Y380684D01*
X405257Y380564D01*
X405238Y380425D01*
X405229Y380277D01*
X405201Y380120D01*
X405183Y379954D01*
X405109Y379612D01*
X405017Y379270D01*
X404952Y379113D01*
X404887Y378955D01*
X404878Y378946D01*
X404869Y378918D01*
X404850Y378881D01*
X404813Y378826D01*
X404776Y378770D01*
X404730Y378696D01*
X404600Y378549D01*
X404453Y378401D01*
X404360Y378336D01*
X404258Y378280D01*
X404157Y378225D01*
X404046Y378188D01*
X403926Y378160D01*
X403796Y378151D01*
X403768D01*
X403731Y378160D01*
X403685D01*
X403630Y378179D01*
X403565Y378197D01*
X403491Y378216D01*
X403408Y378253D01*
X403325Y378290D01*
X403232Y378345D01*
X403149Y378410D01*
X403056Y378484D01*
X402964Y378576D01*
X402881Y378687D01*
X402798Y378807D01*
X402714Y378946D01*
X402705Y378955D01*
X402696Y378983D01*
X402677Y379029D01*
X402650Y379094D01*
X402622Y379168D01*
X402585Y379260D01*
X402548Y379371D01*
X402511Y379501D01*
X402474Y379640D01*
X402437Y379797D01*
X402400Y379963D01*
X402372Y380148D01*
X402345Y380342D01*
X402326Y380546D01*
X402308Y380767D01*
Y380999D01*
Y381017D01*
Y381054D01*
Y381128D01*
X402317Y381221D01*
Y381331D01*
X402326Y381461D01*
X402345Y381609D01*
X402363Y381766D01*
X402409Y382099D01*
X402483Y382441D01*
X402594Y382783D01*
X402659Y382940D01*
X402733Y383088D01*
X402742Y383097D01*
X402751Y383116D01*
X402779Y383153D01*
X402807Y383208D01*
X402899Y383329D01*
X403029Y383458D01*
X403177Y383597D01*
X403362Y383717D01*
X403463Y383763D01*
X403565Y383800D01*
X403676Y383828D01*
X403796Y383837D01*
X403824D01*
X403861Y383828D01*
D02*
G37*
G36*
X411424Y363823D02*
X411498Y363805D01*
X411599Y363768D01*
X411710Y363712D01*
X411840Y363620D01*
X411895Y363555D01*
X411960Y363490D01*
X412025Y363416D01*
X412080Y363324D01*
Y363315D01*
X412089Y363296D01*
X412108Y363268D01*
X412126Y363231D01*
X412145Y363176D01*
X412173Y363120D01*
X412200Y363046D01*
X412228Y362963D01*
X412256Y362871D01*
X412284Y362769D01*
X412311Y362658D01*
X412330Y362529D01*
X412367Y362261D01*
X412376Y361955D01*
Y361946D01*
Y361918D01*
Y361872D01*
X412367Y361808D01*
Y361734D01*
X412357Y361650D01*
X412348Y361558D01*
X412339Y361456D01*
X412302Y361234D01*
X412247Y360994D01*
X412182Y360763D01*
X412080Y360550D01*
Y360541D01*
X412062Y360522D01*
X412052Y360504D01*
X412025Y360467D01*
X411960Y360374D01*
X411877Y360273D01*
X411766Y360180D01*
X411627Y360088D01*
X411562Y360051D01*
X411479Y360032D01*
X411396Y360014D01*
X411313Y360005D01*
X411257D01*
X411193Y360023D01*
X411119Y360042D01*
X411026Y360079D01*
X410934Y360134D01*
X410832Y360208D01*
X410740Y360310D01*
Y358239D01*
X410092D01*
Y363777D01*
X410740D01*
Y363499D01*
X410758D01*
X410767Y363518D01*
X410795Y363555D01*
X410850Y363601D01*
X410915Y363666D01*
X411008Y363731D01*
X411109Y363777D01*
X411220Y363814D01*
X411350Y363832D01*
X411368D01*
X411424Y363823D01*
D02*
G37*
G36*
X398554D02*
X398628Y363805D01*
X398730Y363768D01*
X398840Y363712D01*
X398970Y363620D01*
X399025Y363555D01*
X399090Y363490D01*
X399155Y363416D01*
X399210Y363324D01*
Y363315D01*
X399220Y363296D01*
X399238Y363268D01*
X399257Y363231D01*
X399275Y363176D01*
X399303Y363120D01*
X399330Y363046D01*
X399358Y362963D01*
X399386Y362871D01*
X399414Y362769D01*
X399441Y362658D01*
X399460Y362529D01*
X399497Y362261D01*
X399506Y361955D01*
Y361946D01*
Y361918D01*
Y361872D01*
X399497Y361808D01*
Y361734D01*
X399488Y361650D01*
X399478Y361558D01*
X399469Y361456D01*
X399432Y361234D01*
X399377Y360994D01*
X399312Y360763D01*
X399210Y360550D01*
Y360541D01*
X399192Y360522D01*
X399183Y360504D01*
X399155Y360467D01*
X399090Y360374D01*
X399007Y360273D01*
X398896Y360180D01*
X398757Y360088D01*
X398693Y360051D01*
X398609Y360032D01*
X398526Y360014D01*
X398443Y360005D01*
X398387D01*
X398323Y360023D01*
X398249Y360042D01*
X398156Y360079D01*
X398064Y360134D01*
X397962Y360208D01*
X397870Y360310D01*
Y358239D01*
X397223D01*
Y363777D01*
X397870D01*
Y363499D01*
X397888D01*
X397897Y363518D01*
X397925Y363555D01*
X397981Y363601D01*
X398045Y363666D01*
X398138Y363731D01*
X398240Y363777D01*
X398350Y363814D01*
X398480Y363832D01*
X398498D01*
X398554Y363823D01*
D02*
G37*
G36*
X401605D02*
X401670Y363814D01*
X401753Y363795D01*
X401845Y363768D01*
X401947Y363712D01*
X402049Y363647D01*
X402141Y363555D01*
X402150Y363546D01*
X402178Y363499D01*
X402215Y363444D01*
X402252Y363352D01*
X402289Y363250D01*
X402326Y363111D01*
X402354Y362963D01*
X402363Y362788D01*
Y360106D01*
X401716D01*
Y362723D01*
Y362732D01*
Y362741D01*
X401707Y362806D01*
X401697Y362889D01*
X401670Y362982D01*
X401633Y363074D01*
X401568Y363157D01*
X401485Y363222D01*
X401429Y363231D01*
X401374Y363241D01*
X401337D01*
X401300Y363231D01*
X401254Y363222D01*
X401198Y363194D01*
X401143Y363167D01*
X401078Y363120D01*
X401022Y363065D01*
X401013Y363056D01*
X400995Y363037D01*
X400976Y363000D01*
X400939Y362963D01*
X400893Y362880D01*
X400874Y362843D01*
X400865Y362815D01*
Y360106D01*
X400218D01*
Y363777D01*
X400865D01*
Y363379D01*
X400884D01*
Y363389D01*
X400893Y363398D01*
X400930Y363453D01*
X400985Y363518D01*
X401059Y363601D01*
X401161Y363684D01*
X401272Y363758D01*
X401401Y363814D01*
X401466Y363823D01*
X401540Y363832D01*
X401559D01*
X401605Y363823D01*
D02*
G37*
G36*
X421945Y363842D02*
X422028Y363823D01*
X422139Y363795D01*
X422260Y363758D01*
X422380Y363712D01*
X422509Y363638D01*
Y362899D01*
X422491Y362908D01*
X422454Y362945D01*
X422389Y362991D01*
X422315Y363046D01*
X422223Y363111D01*
X422112Y363157D01*
X422001Y363194D01*
X421890Y363204D01*
X421853D01*
X421806Y363194D01*
X421760Y363185D01*
X421696Y363167D01*
X421640Y363139D01*
X421575Y363102D01*
X421511Y363056D01*
X421501Y363046D01*
X421483Y363028D01*
X421455Y362991D01*
X421427Y362945D01*
X421400Y362889D01*
X421372Y362825D01*
X421353Y362760D01*
X421344Y362677D01*
Y362667D01*
Y362640D01*
Y362603D01*
X421353Y362547D01*
X421363Y362482D01*
X421381Y362399D01*
X421409Y362307D01*
X421437Y362214D01*
Y362205D01*
X421455Y362159D01*
X421483Y362085D01*
X421529Y361983D01*
X421594Y361845D01*
X421640Y361761D01*
X421686Y361669D01*
X421733Y361567D01*
X421788Y361456D01*
X421853Y361336D01*
X421927Y361207D01*
Y361197D01*
X421945Y361170D01*
X421964Y361133D01*
X421991Y361086D01*
X422019Y361022D01*
X422056Y360957D01*
X422139Y360791D01*
X422223Y360615D01*
X422306Y360430D01*
X422380Y360264D01*
X422435Y360106D01*
Y360088D01*
X422454Y360042D01*
X422472Y359968D01*
X422491Y359884D01*
X422509Y359774D01*
X422528Y359663D01*
X422537Y359552D01*
X422546Y359441D01*
Y359431D01*
Y359413D01*
Y359385D01*
X422537Y359348D01*
X422528Y359247D01*
X422509Y359117D01*
X422472Y358969D01*
X422417Y358812D01*
X422333Y358664D01*
X422232Y358525D01*
X422213Y358507D01*
X422176Y358470D01*
X422102Y358414D01*
X422010Y358340D01*
X421899Y358276D01*
X421751Y358220D01*
X421594Y358183D01*
X421418Y358165D01*
X421372D01*
X421316Y358174D01*
X421242Y358183D01*
X421150Y358202D01*
X421048Y358229D01*
X420937Y358266D01*
X420817Y358313D01*
Y358978D01*
X420826Y358969D01*
X420863Y358951D01*
X420919Y358923D01*
X420993Y358895D01*
X421067Y358867D01*
X421159Y358840D01*
X421242Y358821D01*
X421326Y358812D01*
X421372D01*
X421409Y358821D01*
X421492Y358840D01*
X421594Y358877D01*
X421696Y358941D01*
X421742Y358988D01*
X421779Y359034D01*
X421816Y359099D01*
X421834Y359173D01*
X421853Y359256D01*
X421862Y359348D01*
Y359357D01*
Y359385D01*
X421853Y359422D01*
Y359478D01*
X421843Y359552D01*
X421825Y359626D01*
X421806Y359718D01*
X421779Y359820D01*
X421769Y359829D01*
X421760Y359875D01*
X421733Y359940D01*
X421686Y360042D01*
X421622Y360180D01*
X421585Y360264D01*
X421538Y360347D01*
X421483Y360448D01*
X421427Y360559D01*
X421363Y360680D01*
X421298Y360809D01*
X421289Y360818D01*
X421279Y360837D01*
X421261Y360874D01*
X421233Y360929D01*
X421206Y360985D01*
X421169Y361059D01*
X421085Y361216D01*
X420993Y361391D01*
X420910Y361576D01*
X420836Y361752D01*
X420780Y361909D01*
X420771Y361928D01*
X420762Y361974D01*
X420743Y362048D01*
X420715Y362131D01*
X420697Y362242D01*
X420679Y362353D01*
X420669Y362473D01*
X420660Y362584D01*
Y362593D01*
Y362612D01*
Y362640D01*
X420669Y362677D01*
X420679Y362778D01*
X420697Y362908D01*
X420743Y363056D01*
X420799Y363204D01*
X420873Y363361D01*
X420984Y363499D01*
X421002Y363518D01*
X421039Y363555D01*
X421113Y363610D01*
X421206Y363675D01*
X421326Y363740D01*
X421464Y363795D01*
X421622Y363832D01*
X421806Y363851D01*
X421871D01*
X421945Y363842D01*
D02*
G37*
G36*
X406117D02*
X406200Y363823D01*
X406311Y363795D01*
X406431Y363758D01*
X406551Y363712D01*
X406681Y363638D01*
Y362899D01*
X406662Y362908D01*
X406625Y362945D01*
X406561Y362991D01*
X406487Y363046D01*
X406394Y363111D01*
X406283Y363157D01*
X406172Y363194D01*
X406061Y363204D01*
X406024D01*
X405978Y363194D01*
X405932Y363185D01*
X405867Y363167D01*
X405812Y363139D01*
X405747Y363102D01*
X405682Y363056D01*
X405673Y363046D01*
X405654Y363028D01*
X405627Y362991D01*
X405599Y362945D01*
X405571Y362889D01*
X405544Y362825D01*
X405525Y362760D01*
X405516Y362677D01*
Y362667D01*
Y362640D01*
Y362603D01*
X405525Y362547D01*
X405534Y362482D01*
X405553Y362399D01*
X405580Y362307D01*
X405608Y362214D01*
Y362205D01*
X405627Y362159D01*
X405654Y362085D01*
X405701Y361983D01*
X405765Y361845D01*
X405812Y361761D01*
X405858Y361669D01*
X405904Y361567D01*
X405960Y361456D01*
X406024Y361336D01*
X406098Y361207D01*
Y361197D01*
X406117Y361170D01*
X406135Y361133D01*
X406163Y361086D01*
X406191Y361022D01*
X406228Y360957D01*
X406311Y360791D01*
X406394Y360615D01*
X406477Y360430D01*
X406551Y360264D01*
X406607Y360106D01*
Y360088D01*
X406625Y360042D01*
X406644Y359968D01*
X406662Y359884D01*
X406681Y359774D01*
X406699Y359663D01*
X406708Y359552D01*
X406718Y359441D01*
Y359431D01*
Y359413D01*
Y359385D01*
X406708Y359348D01*
X406699Y359247D01*
X406681Y359117D01*
X406644Y358969D01*
X406588Y358812D01*
X406505Y358664D01*
X406403Y358525D01*
X406385Y358507D01*
X406348Y358470D01*
X406274Y358414D01*
X406181Y358340D01*
X406071Y358276D01*
X405923Y358220D01*
X405765Y358183D01*
X405590Y358165D01*
X405544D01*
X405488Y358174D01*
X405414Y358183D01*
X405322Y358202D01*
X405220Y358229D01*
X405109Y358266D01*
X404989Y358313D01*
Y358978D01*
X404998Y358969D01*
X405035Y358951D01*
X405090Y358923D01*
X405164Y358895D01*
X405238Y358867D01*
X405331Y358840D01*
X405414Y358821D01*
X405497Y358812D01*
X405544D01*
X405580Y358821D01*
X405664Y358840D01*
X405765Y358877D01*
X405867Y358941D01*
X405913Y358988D01*
X405950Y359034D01*
X405987Y359099D01*
X406006Y359173D01*
X406024Y359256D01*
X406034Y359348D01*
Y359357D01*
Y359385D01*
X406024Y359422D01*
Y359478D01*
X406015Y359552D01*
X405997Y359626D01*
X405978Y359718D01*
X405950Y359820D01*
X405941Y359829D01*
X405932Y359875D01*
X405904Y359940D01*
X405858Y360042D01*
X405793Y360180D01*
X405756Y360264D01*
X405710Y360347D01*
X405654Y360448D01*
X405599Y360559D01*
X405534Y360680D01*
X405470Y360809D01*
X405460Y360818D01*
X405451Y360837D01*
X405433Y360874D01*
X405405Y360929D01*
X405377Y360985D01*
X405340Y361059D01*
X405257Y361216D01*
X405164Y361391D01*
X405081Y361576D01*
X405007Y361752D01*
X404952Y361909D01*
X404943Y361928D01*
X404933Y361974D01*
X404915Y362048D01*
X404887Y362131D01*
X404869Y362242D01*
X404850Y362353D01*
X404841Y362473D01*
X404832Y362584D01*
Y362593D01*
Y362612D01*
Y362640D01*
X404841Y362677D01*
X404850Y362778D01*
X404869Y362908D01*
X404915Y363056D01*
X404970Y363204D01*
X405044Y363361D01*
X405155Y363499D01*
X405174Y363518D01*
X405211Y363555D01*
X405285Y363610D01*
X405377Y363675D01*
X405497Y363740D01*
X405636Y363795D01*
X405793Y363832D01*
X405978Y363851D01*
X406043D01*
X406117Y363842D01*
D02*
G37*
G36*
X396427Y360106D02*
X395780D01*
Y363777D01*
X396427D01*
Y360106D01*
D02*
G37*
G36*
X419088Y363869D02*
X419190Y363851D01*
X419319Y363814D01*
X419458Y363758D01*
X419597Y363666D01*
X419671Y363610D01*
X419735Y363546D01*
X419800Y363462D01*
X419865Y363379D01*
Y363370D01*
X419874Y363352D01*
X419893Y363324D01*
X419911Y363287D01*
X419939Y363231D01*
X419957Y363176D01*
X419985Y363093D01*
X420013Y363009D01*
X420050Y362917D01*
X420078Y362806D01*
X420096Y362686D01*
X420124Y362556D01*
X420142Y362418D01*
X420161Y362270D01*
X420170Y362113D01*
Y361937D01*
Y361928D01*
Y361900D01*
Y361845D01*
Y361789D01*
X420161Y361706D01*
X420152Y361623D01*
Y361521D01*
X420133Y361419D01*
X420105Y361188D01*
X420059Y360948D01*
X419994Y360717D01*
X419948Y360615D01*
X419902Y360513D01*
Y360504D01*
X419893Y360495D01*
X419856Y360430D01*
X419791Y360356D01*
X419708Y360254D01*
X419597Y360162D01*
X419477Y360088D01*
X419319Y360023D01*
X419236Y360014D01*
X419153Y360005D01*
X419107D01*
X419061Y360014D01*
X418996Y360032D01*
X418922Y360069D01*
X418829Y360116D01*
X418737Y360180D01*
X418644Y360264D01*
X418552Y360374D01*
X418460Y360513D01*
X418376Y360680D01*
X418302Y360883D01*
X418265Y360994D01*
X418238Y361123D01*
X418210Y361253D01*
X418191Y361401D01*
X418173Y361549D01*
X418164Y361715D01*
X418154Y361900D01*
Y362085D01*
X419523D01*
Y362094D01*
Y362131D01*
Y362196D01*
X419514Y362270D01*
X419504Y362362D01*
X419486Y362455D01*
X419440Y362677D01*
X419403Y362788D01*
X419366Y362889D01*
X419310Y362991D01*
X419245Y363083D01*
X419171Y363157D01*
X419079Y363213D01*
X418977Y363259D01*
X418866Y363268D01*
X418848D01*
X418802Y363259D01*
X418737Y363250D01*
X418654Y363222D01*
X418552Y363185D01*
X418441Y363120D01*
X418339Y363037D01*
X418228Y362917D01*
Y363564D01*
X418247Y363573D01*
X418293Y363610D01*
X418358Y363666D01*
X418460Y363721D01*
X418571Y363777D01*
X418700Y363832D01*
X418839Y363869D01*
X418996Y363879D01*
X419051D01*
X419088Y363869D01*
D02*
G37*
G36*
X416490D02*
X416592Y363851D01*
X416721Y363814D01*
X416860Y363758D01*
X416999Y363666D01*
X417073Y363610D01*
X417137Y363546D01*
X417202Y363462D01*
X417267Y363379D01*
Y363370D01*
X417276Y363352D01*
X417295Y363324D01*
X417313Y363287D01*
X417341Y363231D01*
X417359Y363176D01*
X417387Y363093D01*
X417415Y363009D01*
X417452Y362917D01*
X417480Y362806D01*
X417498Y362686D01*
X417526Y362556D01*
X417544Y362418D01*
X417563Y362270D01*
X417572Y362113D01*
Y361937D01*
Y361928D01*
Y361900D01*
Y361845D01*
Y361789D01*
X417563Y361706D01*
X417553Y361623D01*
Y361521D01*
X417535Y361419D01*
X417507Y361188D01*
X417461Y360948D01*
X417396Y360717D01*
X417350Y360615D01*
X417304Y360513D01*
Y360504D01*
X417295Y360495D01*
X417258Y360430D01*
X417193Y360356D01*
X417110Y360254D01*
X416999Y360162D01*
X416879Y360088D01*
X416721Y360023D01*
X416638Y360014D01*
X416555Y360005D01*
X416509D01*
X416463Y360014D01*
X416398Y360032D01*
X416324Y360069D01*
X416231Y360116D01*
X416139Y360180D01*
X416046Y360264D01*
X415954Y360374D01*
X415862Y360513D01*
X415778Y360680D01*
X415704Y360883D01*
X415667Y360994D01*
X415640Y361123D01*
X415612Y361253D01*
X415593Y361401D01*
X415575Y361549D01*
X415566Y361715D01*
X415556Y361900D01*
Y362085D01*
X416925D01*
Y362094D01*
Y362131D01*
Y362196D01*
X416916Y362270D01*
X416906Y362362D01*
X416888Y362455D01*
X416842Y362677D01*
X416805Y362788D01*
X416768Y362889D01*
X416712Y362991D01*
X416647Y363083D01*
X416573Y363157D01*
X416481Y363213D01*
X416379Y363259D01*
X416268Y363268D01*
X416250D01*
X416204Y363259D01*
X416139Y363250D01*
X416056Y363222D01*
X415954Y363185D01*
X415843Y363120D01*
X415741Y363037D01*
X415630Y362917D01*
Y363564D01*
X415649Y363573D01*
X415695Y363610D01*
X415760Y363666D01*
X415862Y363721D01*
X415973Y363777D01*
X416102Y363832D01*
X416241Y363869D01*
X416398Y363879D01*
X416453D01*
X416490Y363869D01*
D02*
G37*
G36*
X413892D02*
X413994Y363851D01*
X414123Y363814D01*
X414262Y363758D01*
X414401Y363666D01*
X414475Y363610D01*
X414539Y363546D01*
X414604Y363462D01*
X414669Y363379D01*
Y363370D01*
X414678Y363352D01*
X414697Y363324D01*
X414715Y363287D01*
X414743Y363231D01*
X414761Y363176D01*
X414789Y363093D01*
X414817Y363009D01*
X414854Y362917D01*
X414882Y362806D01*
X414900Y362686D01*
X414928Y362556D01*
X414946Y362418D01*
X414965Y362270D01*
X414974Y362113D01*
Y361937D01*
Y361928D01*
Y361900D01*
Y361845D01*
Y361789D01*
X414965Y361706D01*
X414955Y361623D01*
Y361521D01*
X414937Y361419D01*
X414909Y361188D01*
X414863Y360948D01*
X414798Y360717D01*
X414752Y360615D01*
X414706Y360513D01*
Y360504D01*
X414697Y360495D01*
X414660Y360430D01*
X414595Y360356D01*
X414512Y360254D01*
X414401Y360162D01*
X414281Y360088D01*
X414123Y360023D01*
X414040Y360014D01*
X413957Y360005D01*
X413911D01*
X413865Y360014D01*
X413800Y360032D01*
X413726Y360069D01*
X413633Y360116D01*
X413541Y360180D01*
X413448Y360264D01*
X413356Y360374D01*
X413264Y360513D01*
X413180Y360680D01*
X413106Y360883D01*
X413069Y360994D01*
X413042Y361123D01*
X413014Y361253D01*
X412995Y361401D01*
X412977Y361549D01*
X412968Y361715D01*
X412958Y361900D01*
Y362085D01*
X414327D01*
Y362094D01*
Y362131D01*
Y362196D01*
X414318Y362270D01*
X414308Y362362D01*
X414290Y362455D01*
X414244Y362677D01*
X414207Y362788D01*
X414170Y362889D01*
X414114Y362991D01*
X414049Y363083D01*
X413975Y363157D01*
X413883Y363213D01*
X413781Y363259D01*
X413670Y363268D01*
X413652D01*
X413606Y363259D01*
X413541Y363250D01*
X413458Y363222D01*
X413356Y363185D01*
X413245Y363120D01*
X413143Y363037D01*
X413032Y362917D01*
Y363564D01*
X413051Y363573D01*
X413097Y363610D01*
X413162Y363666D01*
X413264Y363721D01*
X413374Y363777D01*
X413504Y363832D01*
X413643Y363869D01*
X413800Y363879D01*
X413855D01*
X413892Y363869D01*
D02*
G37*
G36*
X394042D02*
X394134Y363851D01*
X394255Y363814D01*
X394393Y363758D01*
X394532Y363666D01*
X394597Y363601D01*
X394671Y363536D01*
X394735Y363462D01*
X394791Y363370D01*
Y363361D01*
X394800Y363342D01*
X394819Y363315D01*
X394837Y363278D01*
X394865Y363222D01*
X394883Y363157D01*
X394911Y363083D01*
X394939Y363000D01*
X394976Y362899D01*
X395004Y362797D01*
X395022Y362677D01*
X395050Y362547D01*
X395068Y362418D01*
X395087Y362270D01*
X395096Y362113D01*
Y361946D01*
Y361937D01*
Y361909D01*
Y361863D01*
X395087Y361798D01*
Y361724D01*
X395078Y361632D01*
X395068Y361539D01*
X395059Y361428D01*
X395022Y361207D01*
X394967Y360966D01*
X394893Y360744D01*
X394791Y360532D01*
Y360522D01*
X394772Y360513D01*
X394763Y360485D01*
X394735Y360448D01*
X394661Y360365D01*
X394569Y360264D01*
X394449Y360171D01*
X394310Y360088D01*
X394227Y360051D01*
X394144Y360023D01*
X394051Y360014D01*
X393950Y360005D01*
X393894D01*
X393866Y360014D01*
X393765Y360032D01*
X393644Y360069D01*
X393515Y360134D01*
X393441Y360171D01*
X393376Y360227D01*
X393302Y360291D01*
X393238Y360356D01*
X393173Y360439D01*
X393108Y360532D01*
Y360541D01*
X393099Y360559D01*
X393080Y360587D01*
X393062Y360624D01*
X393034Y360680D01*
X393007Y360744D01*
X392979Y360818D01*
X392951Y360901D01*
X392923Y360994D01*
X392896Y361105D01*
X392868Y361225D01*
X392840Y361345D01*
X392822Y361484D01*
X392803Y361632D01*
X392794Y361780D01*
Y361946D01*
Y361955D01*
Y361983D01*
Y362029D01*
Y362094D01*
X392803Y362168D01*
X392812Y362261D01*
X392822Y362362D01*
X392831Y362464D01*
X392868Y362695D01*
X392923Y362926D01*
X393007Y363157D01*
X393108Y363370D01*
Y363379D01*
X393127Y363389D01*
X393164Y363453D01*
X393238Y363527D01*
X393330Y363620D01*
X393450Y363721D01*
X393598Y363795D01*
X393765Y363860D01*
X393857Y363869D01*
X393950Y363879D01*
X394005D01*
X394042Y363869D01*
D02*
G37*
G36*
X403454D02*
X403491D01*
X403602Y363832D01*
X403667Y363814D01*
X403722Y363777D01*
X403787Y363731D01*
X403852Y363675D01*
X403907Y363610D01*
X403963Y363536D01*
X403999Y363444D01*
X404036Y363333D01*
X404055Y363204D01*
X404064Y363065D01*
Y360670D01*
X404490D01*
Y360615D01*
X404480Y360606D01*
X404471Y360587D01*
X404443Y360559D01*
X404406Y360513D01*
X404369Y360458D01*
X404314Y360393D01*
X404258Y360310D01*
X404194Y360217D01*
X404120Y360125D01*
X404036Y360014D01*
X403953Y359894D01*
X403870Y359764D01*
X403685Y359478D01*
X403482Y359154D01*
X403417D01*
Y360106D01*
X402816D01*
Y360670D01*
X403417D01*
Y362778D01*
Y362788D01*
Y362825D01*
Y362871D01*
X403408Y362935D01*
X403399Y363065D01*
X403389Y363120D01*
X403371Y363167D01*
X403362Y363185D01*
X403325Y363213D01*
X403260Y363250D01*
X403223Y363259D01*
X403167Y363268D01*
X403140D01*
X403112Y363259D01*
X403075D01*
X403029Y363241D01*
X402964Y363222D01*
X402890Y363204D01*
X402816Y363167D01*
Y363740D01*
X402835Y363749D01*
X402872Y363758D01*
X402936Y363786D01*
X403010Y363805D01*
X403103Y363832D01*
X403195Y363860D01*
X403297Y363869D01*
X403389Y363879D01*
X403417D01*
X403454Y363869D01*
D02*
G37*
G36*
X396159Y358904D02*
X396196D01*
X396279Y358867D01*
X396326Y358849D01*
X396372Y358812D01*
Y358803D01*
X396390Y358793D01*
X396418Y358738D01*
X396455Y358655D01*
X396464Y358599D01*
X396474Y358544D01*
Y358535D01*
Y358516D01*
X396464Y358488D01*
Y358451D01*
X396427Y358368D01*
X396409Y358322D01*
X396372Y358276D01*
X396363Y358266D01*
X396353Y358257D01*
X396298Y358220D01*
X396215Y358183D01*
X396159Y358165D01*
X396076D01*
X396048Y358174D01*
X396011D01*
X395928Y358211D01*
X395882Y358239D01*
X395836Y358276D01*
X395826Y358285D01*
X395817Y358294D01*
X395780Y358350D01*
X395743Y358433D01*
X395725Y358488D01*
Y358544D01*
Y358553D01*
Y358572D01*
X395734Y358599D01*
Y358636D01*
X395771Y358720D01*
X395799Y358766D01*
X395836Y358812D01*
X395845D01*
X395854Y358830D01*
X395910Y358858D01*
X395993Y358895D01*
X396048Y358904D01*
X396104Y358914D01*
X396132D01*
X396159Y358904D01*
D02*
G37*
%LPC*%
G36*
X407448Y381868D02*
X406653D01*
X407041Y379556D01*
X407060D01*
X407448Y381868D01*
D02*
G37*
G36*
X403787Y383171D02*
X403768D01*
X403731Y383162D01*
X403667Y383144D01*
X403593Y383097D01*
X403509Y383033D01*
X403463Y382986D01*
X403426Y382931D01*
X403380Y382866D01*
X403334Y382783D01*
X403297Y382700D01*
X403260Y382598D01*
Y382589D01*
X403251Y382570D01*
X403241Y382543D01*
X403232Y382496D01*
X403214Y382432D01*
X403195Y382358D01*
X403177Y382275D01*
X403158Y382182D01*
X403140Y382071D01*
X403121Y381951D01*
X403103Y381821D01*
X403084Y381683D01*
X403075Y381526D01*
X403066Y381359D01*
X403056Y381184D01*
Y380999D01*
Y380989D01*
Y380952D01*
Y380897D01*
Y380823D01*
X403066Y380740D01*
Y380638D01*
X403075Y380527D01*
X403084Y380407D01*
X403103Y380148D01*
X403140Y379880D01*
X403195Y379621D01*
X403223Y379501D01*
X403260Y379390D01*
Y379381D01*
X403269Y379362D01*
X403278Y379334D01*
X403297Y379297D01*
X403343Y379205D01*
X403399Y379103D01*
X403482Y379002D01*
X403574Y378909D01*
X403620Y378872D01*
X403685Y378844D01*
X403741Y378826D01*
X403805Y378817D01*
X403824D01*
X403861Y378826D01*
X403926Y378844D01*
X403999Y378891D01*
X404092Y378955D01*
X404138Y379002D01*
X404175Y379066D01*
X404221Y379131D01*
X404268Y379205D01*
X404305Y379297D01*
X404342Y379399D01*
Y379408D01*
X404351Y379427D01*
X404360Y379464D01*
X404369Y379510D01*
X404388Y379566D01*
X404397Y379640D01*
X404416Y379723D01*
X404434Y379815D01*
X404453Y379926D01*
X404471Y380046D01*
X404480Y380176D01*
X404499Y380324D01*
X404508Y380472D01*
X404517Y380638D01*
X404526Y380814D01*
Y380999D01*
Y381008D01*
Y381045D01*
Y381100D01*
Y381174D01*
X404517Y381258D01*
Y381359D01*
X404508Y381470D01*
X404499Y381600D01*
X404480Y381858D01*
X404453Y382127D01*
X404406Y382385D01*
X404369Y382506D01*
X404342Y382617D01*
Y382626D01*
X404332Y382644D01*
X404323Y382672D01*
X404305Y382700D01*
X404258Y382792D01*
X404203Y382894D01*
X404120Y382996D01*
X404027Y383088D01*
X403972Y383116D01*
X403916Y383144D01*
X403852Y383162D01*
X403787Y383171D01*
D02*
G37*
G36*
X411202Y363185D02*
X411165D01*
X411137Y363176D01*
X411091Y363167D01*
X411035Y363148D01*
X410980Y363120D01*
X410924Y363083D01*
X410878Y363037D01*
X410869Y363028D01*
X410860Y363009D01*
X410804Y362954D01*
X410758Y362889D01*
X410749Y362862D01*
X410740Y362843D01*
Y360985D01*
X410749Y360966D01*
X410767Y360929D01*
X410795Y360864D01*
X410841Y360800D01*
X410897Y360735D01*
X410971Y360670D01*
X411063Y360633D01*
X411165Y360615D01*
X411174D01*
X411202Y360624D01*
X411248Y360633D01*
X411303Y360661D01*
X411368Y360698D01*
X411433Y360763D01*
X411507Y360855D01*
X411562Y360975D01*
X411572Y360994D01*
X411581Y361040D01*
X411609Y361123D01*
X411636Y361234D01*
X411664Y361373D01*
X411683Y361549D01*
X411701Y361743D01*
X411710Y361974D01*
Y361983D01*
Y362029D01*
Y362085D01*
X411701Y362159D01*
X411692Y362251D01*
X411683Y362353D01*
X411646Y362575D01*
X411590Y362806D01*
X411544Y362908D01*
X411498Y362991D01*
X411433Y363074D01*
X411368Y363130D01*
X411294Y363167D01*
X411202Y363185D01*
D02*
G37*
G36*
X398332D02*
X398295D01*
X398267Y363176D01*
X398221Y363167D01*
X398166Y363148D01*
X398110Y363120D01*
X398055Y363083D01*
X398008Y363037D01*
X397999Y363028D01*
X397990Y363009D01*
X397934Y362954D01*
X397888Y362889D01*
X397879Y362862D01*
X397870Y362843D01*
Y360985D01*
X397879Y360966D01*
X397897Y360929D01*
X397925Y360864D01*
X397971Y360800D01*
X398027Y360735D01*
X398101Y360670D01*
X398193Y360633D01*
X398295Y360615D01*
X398304D01*
X398332Y360624D01*
X398378Y360633D01*
X398434Y360661D01*
X398498Y360698D01*
X398563Y360763D01*
X398637Y360855D01*
X398693Y360975D01*
X398702Y360994D01*
X398711Y361040D01*
X398739Y361123D01*
X398767Y361234D01*
X398794Y361373D01*
X398813Y361549D01*
X398831Y361743D01*
X398840Y361974D01*
Y361983D01*
Y362029D01*
Y362085D01*
X398831Y362159D01*
X398822Y362251D01*
X398813Y362353D01*
X398776Y362575D01*
X398720Y362806D01*
X398674Y362908D01*
X398628Y362991D01*
X398563Y363074D01*
X398498Y363130D01*
X398424Y363167D01*
X398332Y363185D01*
D02*
G37*
G36*
X419532Y361595D02*
X418802D01*
Y361586D01*
Y361549D01*
Y361502D01*
X418811Y361438D01*
Y361354D01*
X418820Y361271D01*
X418848Y361077D01*
X418894Y360892D01*
X418922Y360809D01*
X418959Y360726D01*
X419005Y360661D01*
X419051Y360615D01*
X419116Y360578D01*
X419181Y360569D01*
X419199D01*
X419236Y360587D01*
X419292Y360624D01*
X419319Y360652D01*
X419356Y360698D01*
X419393Y360754D01*
X419421Y360818D01*
X419449Y360901D01*
X419477Y361003D01*
X419495Y361123D01*
X419514Y361253D01*
X419532Y361410D01*
Y361595D01*
D02*
G37*
G36*
X416934D02*
X416204D01*
Y361586D01*
Y361549D01*
Y361502D01*
X416213Y361438D01*
Y361354D01*
X416222Y361271D01*
X416250Y361077D01*
X416296Y360892D01*
X416324Y360809D01*
X416361Y360726D01*
X416407Y360661D01*
X416453Y360615D01*
X416518Y360578D01*
X416583Y360569D01*
X416601D01*
X416638Y360587D01*
X416694Y360624D01*
X416721Y360652D01*
X416758Y360698D01*
X416795Y360754D01*
X416823Y360818D01*
X416851Y360901D01*
X416879Y361003D01*
X416897Y361123D01*
X416916Y361253D01*
X416934Y361410D01*
Y361595D01*
D02*
G37*
G36*
X414336D02*
X413606D01*
Y361586D01*
Y361549D01*
Y361502D01*
X413615Y361438D01*
Y361354D01*
X413624Y361271D01*
X413652Y361077D01*
X413698Y360892D01*
X413726Y360809D01*
X413763Y360726D01*
X413809Y360661D01*
X413855Y360615D01*
X413920Y360578D01*
X413985Y360569D01*
X414003D01*
X414040Y360587D01*
X414096Y360624D01*
X414123Y360652D01*
X414160Y360698D01*
X414197Y360754D01*
X414225Y360818D01*
X414253Y360901D01*
X414281Y361003D01*
X414299Y361123D01*
X414318Y361253D01*
X414336Y361410D01*
Y361595D01*
D02*
G37*
G36*
X393940Y363268D02*
X393922D01*
X393866Y363250D01*
X393829Y363231D01*
X393792Y363194D01*
X393746Y363157D01*
X393700Y363102D01*
X393654Y363037D01*
X393607Y362945D01*
X393571Y362843D01*
X393534Y362714D01*
X393506Y362556D01*
X393478Y362381D01*
X393469Y362177D01*
X393460Y361946D01*
Y361928D01*
Y361891D01*
Y361826D01*
X393469Y361734D01*
X393478Y361641D01*
X393487Y361521D01*
X393524Y361281D01*
X393580Y361040D01*
X393626Y360920D01*
X393672Y360818D01*
X393728Y360735D01*
X393792Y360670D01*
X393866Y360633D01*
X393959Y360615D01*
X393977D01*
X394033Y360633D01*
X394070Y360652D01*
X394107Y360689D01*
X394153Y360726D01*
X394190Y360781D01*
X394236Y360855D01*
X394282Y360938D01*
X394319Y361049D01*
X394356Y361179D01*
X394384Y361327D01*
X394412Y361502D01*
X394421Y361715D01*
X394430Y361946D01*
Y361965D01*
Y362002D01*
Y362066D01*
X394421Y362150D01*
X394412Y362251D01*
X394403Y362362D01*
X394366Y362603D01*
X394310Y362852D01*
X394273Y362963D01*
X394227Y363065D01*
X394171Y363148D01*
X394098Y363213D01*
X394024Y363250D01*
X393940Y363268D01*
D02*
G37*
%LPD*%
D10*
X329110Y544830D02*
G03*
X329110Y544830I-1000J0D01*
G01*
X330380Y830580D02*
G03*
X330380Y830580I-1000J0D01*
G01*
X696120Y434580D02*
Y464580D01*
X683300Y290060D02*
X739100D01*
Y263660D02*
Y290060D01*
X683300Y263660D02*
X739100D01*
X683300D02*
Y290060D01*
X661670Y377940D02*
Y385190D01*
Y305690D02*
Y312940D01*
X649170D02*
X674170D01*
Y377940D01*
X649170D02*
X674170D01*
X649170Y312940D02*
Y377940D01*
X578610Y528260D02*
X673610D01*
X578610D02*
Y584260D01*
X673610D01*
Y528260D02*
Y584260D01*
Y556260D02*
X715810D01*
X536410D02*
X578610D01*
X649860Y528960D02*
Y583560D01*
X633890Y397750D02*
Y427750D01*
X553920Y335800D02*
Y400800D01*
X578920D01*
Y335800D02*
Y400800D01*
X553920Y335800D02*
X578920D01*
X566420Y328550D02*
Y335800D01*
Y400800D02*
Y408050D01*
X551220Y267470D02*
Y293870D01*
Y267470D02*
X607020D01*
Y293870D01*
X551220D02*
X607020D01*
X1140430Y775340D02*
Y829940D01*
X1211680Y802640D02*
X1253880D01*
X1074480D02*
X1116680D01*
Y774640D02*
Y830640D01*
Y774640D02*
X1211680D01*
Y830640D01*
X1116680D02*
X1211680D01*
X1140430Y847730D02*
Y902330D01*
X1211680Y875030D02*
X1253880D01*
X1074480D02*
X1116680D01*
Y847030D02*
Y903030D01*
Y847030D02*
X1211680D01*
Y903030D01*
X1116680D02*
X1211680D01*
X1140430Y920120D02*
Y974720D01*
X1211680Y947420D02*
X1253880D01*
X1074480D02*
X1116680D01*
Y919420D02*
Y975420D01*
Y919420D02*
X1211680D01*
Y975420D01*
X1116680D02*
X1211680D01*
X876680Y775340D02*
Y829940D01*
X947930Y802640D02*
X990130D01*
X810730D02*
X852930D01*
Y774640D02*
Y830640D01*
Y774640D02*
X947930D01*
Y830640D01*
X852930D02*
X947930D01*
X876680Y849000D02*
Y903600D01*
X947930Y876300D02*
X990130D01*
X810730D02*
X852930D01*
Y848300D02*
Y904300D01*
Y848300D02*
X947930D01*
Y904300D01*
X852930D02*
X947930D01*
X876680Y921390D02*
Y975990D01*
X947930Y948690D02*
X990130D01*
X810730D02*
X852930D01*
Y920690D02*
Y976690D01*
Y920690D02*
X947930D01*
Y976690D01*
X852930D02*
X947930D01*
X1134080Y282580D02*
Y337180D01*
X1205330Y309880D02*
X1247530D01*
X1068130D02*
X1110330D01*
Y281880D02*
Y337880D01*
Y281880D02*
X1205330D01*
Y337880D01*
X1110330D02*
X1205330D01*
X1134080Y354970D02*
Y409570D01*
X1205330Y382270D02*
X1247530D01*
X1068130D02*
X1110330D01*
Y354270D02*
Y410270D01*
Y354270D02*
X1205330D01*
Y410270D01*
X1110330D02*
X1205330D01*
X1134080Y427360D02*
Y481960D01*
X1205330Y454660D02*
X1247530D01*
X1068130D02*
X1110330D01*
Y426660D02*
Y482660D01*
Y426660D02*
X1205330D01*
Y482660D01*
X1110330D02*
X1205330D01*
X1134080Y501020D02*
Y555620D01*
X1205330Y528320D02*
X1247530D01*
X1068130D02*
X1110330D01*
Y500320D02*
Y556320D01*
Y500320D02*
X1205330D01*
Y556320D01*
X1110330D02*
X1205330D01*
X869060Y282580D02*
Y337180D01*
X940310Y309880D02*
X982510D01*
X803110D02*
X845310D01*
Y281880D02*
Y337880D01*
Y281880D02*
X940310D01*
Y337880D01*
X845310D02*
X940310D01*
X869060Y354970D02*
Y409570D01*
X940310Y382270D02*
X982510D01*
X803110D02*
X845310D01*
Y354270D02*
Y410270D01*
Y354270D02*
X940310D01*
Y410270D01*
X845310D02*
X940310D01*
X869060Y428630D02*
Y483230D01*
X940310Y455930D02*
X982510D01*
X803110D02*
X845310D01*
Y427930D02*
Y483930D01*
Y427930D02*
X940310D01*
Y483930D01*
X845310D02*
X940310D01*
X845310Y556320D02*
X940310D01*
Y500320D02*
Y556320D01*
X845310Y500320D02*
X940310D01*
X845310D02*
Y556320D01*
X803110Y528320D02*
X845310D01*
X940310D02*
X982510D01*
X869060Y501020D02*
Y555620D01*
X984890Y1083310D02*
X1090290D01*
Y1108710D01*
X984890D02*
X1090290D01*
X984890Y1083310D02*
Y1108710D01*
X523100Y960650D02*
X569100D01*
X646050Y828680D02*
Y883280D01*
X532600Y855980D02*
X574800D01*
X669800D02*
X712000D01*
X669800Y827980D02*
Y883980D01*
X574800D02*
X669800D01*
X574800Y827980D02*
Y883980D01*
Y827980D02*
X669800D01*
X538340Y671370D02*
X584340D01*
X970920Y618490D02*
X1076320D01*
X970920Y593090D02*
Y618490D01*
Y593090D02*
X1076320D01*
Y618490D01*
X1140430Y993780D02*
Y1048380D01*
X1211680Y1021080D02*
X1253880D01*
X1074480D02*
X1116680D01*
Y993080D02*
Y1049080D01*
Y993080D02*
X1211680D01*
Y1049080D01*
X1116680D02*
X1211680D01*
X876680Y993780D02*
Y1048380D01*
X947930Y1021080D02*
X990130D01*
X810730D02*
X852930D01*
Y993080D02*
Y1049080D01*
Y993080D02*
X947930D01*
Y1049080D01*
X852930D02*
X947930D01*
D11*
X701870Y449580D02*
G03*
X701870Y449580I-27500J0D01*
G01*
X639640Y412750D02*
G03*
X639640Y412750I-27500J0D01*
G01*
X588600Y995400D02*
G03*
X588600Y995400I-42500J0D01*
G01*
X603840Y706120D02*
G03*
X603840Y706120I-42500J0D01*
G01*
D12*
X678200Y276860D02*
G03*
X678200Y276860I-1250J0D01*
G01*
X546120Y280670D02*
G03*
X546120Y280670I-1250J0D01*
G01*
D13*
X338670Y480920D02*
G03*
X318670Y460920I-0J-20000D01*
G01*
X318670Y290920D02*
G03*
X338670Y270920I20446J446D01*
G01*
X496670Y460920D02*
G03*
X476670Y480920I-20449J-449D01*
G01*
Y270920D02*
G03*
X496670Y290920I-446J20446D01*
G01*
D14*
X520210Y287920D02*
G03*
X520210Y287920I-2540J0D01*
G01*
D15*
X334010Y735330D02*
X486410D01*
X334010Y532130D02*
Y735330D01*
Y532130D02*
X486410D01*
Y735330D01*
X335280Y1021080D02*
X487680D01*
X335280Y817880D02*
Y1021080D01*
Y817880D02*
X487680D01*
Y1021080D01*
X318670Y290920D02*
Y460920D01*
X362670Y330213D02*
X452670D01*
X362670Y256680D02*
Y330213D01*
X496670Y290920D02*
Y460920D01*
X362670Y256680D02*
X452670D01*
X338670Y270929D02*
X476670D01*
X452670Y256680D02*
Y330213D01*
X338670Y480920D02*
X476670D01*
D16*
X318775Y461136D02*
X318793Y461628D01*
X318823Y462116D01*
X318864Y462606D01*
X318917Y463094D01*
X318983Y463582D01*
X319060Y464067D01*
X319149Y464549D01*
X319247Y465030D01*
X496517Y289815D02*
X496547Y290303D01*
X496476Y289325D02*
X496517Y289815D01*
M02*
